<svg xmlns="http://www.w3.org/2000/svg" viewBox="0 0 560 215" width="560" height="215" role="img" aria-label="Kemipetra">
  <!-- Gem: triangles radiating from center (280,86) — no clipPath needed -->
  <polygon points="280,86 280,16 240,30"    fill="#3a6298"/>
  <polygon points="280,86 240,30 214,64"    fill="#4878b8"/>
  <polygon points="280,86 214,64 214,108"   fill="#5a8ccc"/>
  <polygon points="280,86 214,108 240,142"  fill="#6b9fd8"/>
  <polygon points="280,86 240,142 280,156"  fill="#7aaee0"/>
  <polygon points="280,86 280,156 320,142"  fill="#8bbde8"/>
  <polygon points="280,86 320,142 346,108"  fill="#a4cdef"/>
  <polygon points="280,86 346,108 346,64"   fill="#bdd9f4"/>
  <polygon points="280,86 346,64 320,30"    fill="#d0e8f8"/>
  <polygon points="280,86 320,30 280,16"    fill="#9ec4ec"/>

  <!-- Inner pentagon highlight -->
  <polygon points="280,52 312,74 300,116 260,116 248,74" fill="rgba(255,255,255,0.26)"/>

  <!-- Gem outline -->
  <polygon points="280,16 320,30 346,64 346,108 320,142 280,156 240,142 214,108 214,64 240,30"
           fill="none" stroke="rgba(255,255,255,0.22)" stroke-width="1.5"/>

  <!-- KEMIPETRA — soft rounded font, comfortable size -->
  <text
    x="280" y="200"
    font-family="'Century Gothic', 'Gill Sans MT', 'Trebuchet MS', 'Segoe UI', sans-serif"
    font-weight="600"
    font-size="60"
    text-anchor="middle"
    fill="#1a2535"
    letter-spacing="9">KEMIPETRA</text>
</svg>
