<svg xmlns="http://www.w3.org/2000/svg" viewBox="0 0 560 250" role="img" aria-label="Kemipetra">
  <defs>
    <clipPath id="gem">
      <polygon points="280,16 320,30 346,64 346,108 320,142 280,156 240,142 214,108 214,64 240,30"/>
    </clipPath>
  </defs>

  <!-- Gem facets — hub & spoke from center (280,86) -->
  <polygon points="280,86 280,16 240,30"       fill="#3a6298" clip-path="url(#gem)"/>
  <polygon points="280,86 240,30 214,64"        fill="#4878b8" clip-path="url(#gem)"/>
  <polygon points="280,86 214,64 214,108"       fill="#5a8ccc" clip-path="url(#gem)"/>
  <polygon points="280,86 214,108 240,142"      fill="#6b9fd8" clip-path="url(#gem)"/>
  <polygon points="280,86 240,142 280,156"      fill="#7aaee0" clip-path="url(#gem)"/>
  <polygon points="280,86 280,156 320,142"      fill="#8bbde8" clip-path="url(#gem)"/>
  <polygon points="280,86 320,142 346,108"      fill="#a4cdef" clip-path="url(#gem)"/>
  <polygon points="280,86 346,108 346,64"       fill="#bdd9f4" clip-path="url(#gem)"/>
  <polygon points="280,86 346,64 320,30"        fill="#d0e8f8" clip-path="url(#gem)"/>
  <polygon points="280,86 320,30 280,16"        fill="#9ec4ec" clip-path="url(#gem)"/>

  <!-- Inner pentagon highlight -->
  <polygon points="280,52 312,74 300,116 260,116 248,74"
           fill="rgba(255,255,255,0.28)" clip-path="url(#gem)"/>

  <!-- Gem outline -->
  <polygon points="280,16 320,30 346,64 346,108 320,142 280,156 240,142 214,108 214,64 240,30"
           fill="none" stroke="rgba(255,255,255,0.2)" stroke-width="1.5"/>

  <!-- KEMIPETRA — softer rounded font, elegant spacing -->
  <text
    x="280" y="220"
    font-family="'Century Gothic', 'Gill Sans MT', 'Trebuchet MS', 'Segoe UI', sans-serif"
    font-weight="700"
    font-size="74"
    text-anchor="middle"
    fill="#1a2535"
    letter-spacing="10">KEMIPETRA</text>
</svg>
